<?xml version="1.0" encoding="UTF-8"?>
<!-- Generated by Pixelmator Pro 3.6.9 -->
<svg width="1500" height="1500" viewBox="0 0 1500 1500" xmlns="http://www.w3.org/2000/svg">
    <path id="p1" fill="#ffffff" stroke="none" d="M 747.609985 652.75 C 723.419983 768.679993 664.130005 840.109985 587.73999 895.640015 C 598.900024 889.330017 610.650024 884.099976 622.849976 880.159973 C 734.150024 844.22998 824.919983 859.869995 910.580017 897.929993 C 899.400024 891.349976 888.859985 883.710022 879.22998 875.01001 C 793.400024 797.390015 761.390015 711.890015 751.169983 619.72998 L 751.169983 619.72998 C 751.090027 630.820007 749.869995 641.890015 747.609985 652.75 Z"/>
    <linearGradient id="linearGradient1" x1="449.06" y1="656.54" x2="149.14" y2="1121.55" gradientUnits="userSpaceOnUse">
        <stop offset="0.02" stop-color="#5eeeff" stop-opacity="1"/>
        <stop offset="0.68" stop-color="#70e4c9" stop-opacity="1"/>
    </linearGradient>
    <path id="p2" fill="url(#linearGradient1)" stroke="none" d="M 281.130005 1069.469971 L 287.559998 1065.839966 C 287.670013 1065.780029 287.76001 1065.72998 287.869995 1065.670044 C 287.899994 1065.640015 287.950012 1065.640015 287.980011 1065.609985 L 288.619995 1065.219971 L 296 1061.030029 C 296.309998 1060.75 296.609985 1060.469971 296.920013 1060.160034 C 296.920013 1060.160034 296.940002 1060.150024 296.980011 1060.130005 L 297.01001 1060.099976 C 302.769989 1054.880005 308.880005 1049.199951 315.25 1043.089966 C 325 1033.680054 335.279999 1023.310059 345.730011 1012.079956 C 414.179993 933.330017 433.589996 837.299988 437 723.679993 C 437.079987 721.330017 437.140015 718.98999 437.200012 716.640015 C 437.26001 714.77002 437.279999 712.919983 437.339996 711.080017 C 437.399994 708.200012 437.450012 705.299988 437.480011 702.390015 C 437.540009 699.880005 437.559998 697.330017 437.559998 694.789978 C 437.589996 692.299988 437.619995 689.820007 437.619995 687.299988 C 437.649994 685.119995 437.649994 682.969971 437.649994 680.789978 L 437.649994 679.22998 C 437.649994 674.030029 437.619995 668.809998 437.589996 663.530029 C 437.529999 659.340027 437.51001 655.119995 437.420013 650.869995 C 437.390015 648.75 437.359985 646.619995 437.339996 644.5 C 437.279999 641.200012 437.230011 637.909973 437.140015 634.609985 C 429.649994 638.969971 422.25 643.440002 414.929993 648.099976 C 397.390015 659.299988 380.059998 670.840027 363.109985 682.909973 C 359.76001 685.280029 356.48999 687.690002 353.190002 690.090027 C 298.73999 729.929993 248.26001 776 208.139999 830.469971 C 169.059998 883.52002 139.110001 944.090027 125.699997 1008.900024 C 120.759995 1032.900024 118.490005 1057.119995 117.400002 1081.540039 C 116.900002 1093.550049 117.059998 1105.589966 117.989998 1117.609985 C 118.830002 1129.22998 120.029999 1140.709961 123.520004 1151.829956 C 123.800003 1152.810059 124.130005 1153.76001 124.470001 1154.73999 C 124.580002 1154.98999 125.589996 1157.650024 125.589996 1157.650024 L 281 1069.540039 L 281.140015 1069.459961 Z"/>
    <linearGradient id="linearGradient2" x1="125.58" y1="1100.34" x2="1214.29" y2="1100.34" gradientUnits="userSpaceOnUse">
        <stop offset="1e-05" stop-color="#71e3b2" stop-opacity="1"/>
        <stop offset="0.95" stop-color="#adfffb" stop-opacity="1"/>
    </linearGradient>
    <path id="p3" fill="url(#linearGradient2)" stroke="none" d="M 1207.780029 1072.660034 L 1206.859985 1072.119995 L 1199.430054 1067.76001 L 1199.430054 1067.76001 C 1199.430054 1067.76001 1126.300049 1024.76001 1126.300049 1024.76001 C 1052.380005 978.590027 984.070007 930.809998 912.219971 898.659973 C 911.679993 898.419983 911.140015 898.169983 910.590027 897.929993 L 910.590027 897.929993 C 910.590027 897.929993 910.590027 897.929993 910.590027 897.929993 C 824.919983 859.869995 734.150024 844.219971 622.859985 880.159973 C 610.659973 884.099976 598.909973 889.330017 587.75 895.640015 L 580.75 899.609985 L 370.059998 1019.040039 L 296 1061.030029 L 287.980011 1065.609985 C 287.980011 1065.609985 287.899994 1065.640015 287.869995 1065.670044 C 287.76001 1065.72998 287.670013 1065.780029 287.559998 1065.839966 L 281.130005 1069.469971 L 280.98999 1069.550049 L 125.580002 1157.660034 C 126.5 1160.030029 127.589996 1162.349976 128.820007 1164.560059 C 128.820007 1164.560059 128.820007 1164.589966 128.850006 1164.619995 C 135.080002 1174.900024 143.520004 1183.650024 153.490005 1190.290039 C 154.119995 1190.73999 154.75 1191.109985 155.399994 1191.52002 C 156.080002 1191.939941 156.759995 1192.359985 157.449997 1192.780029 C 158.339996 1193.290039 159.220001 1193.810059 160.139999 1194.290039 C 160.169998 1194.319946 427.220001 1338.609985 427.220001 1338.609985 C 439.040009 1345.449951 460.130005 1334.869995 485.779999 1321.76001 C 589.539978 1267.030029 678.23999 1208.25 759.929993 1158.910034 C 765.039978 1155.810059 770.130005 1152.76001 775.210022 1149.75 C 777.840027 1148.189941 780.429993 1146.650024 783.059998 1145.079956 C 808.98999 1129.800049 834.299988 1115.609985 859.219971 1103.01001 C 860.809998 1102.170044 862.429993 1101.359985 864.049988 1100.579956 C 868.859985 1098.150024 873.690002 1095.800049 878.48999 1093.51001 C 880.950012 1092.339966 883.409973 1091.189941 885.869995 1090.069946 C 888.190002 1088.97998 890.539978 1087.920044 892.849976 1086.890015 C 894.440002 1086.140015 896.030029 1085.439941 897.659973 1084.73999 C 900.289978 1083.569946 902.940002 1082.420044 905.570007 1081.300049 C 907.359985 1080.52002 909.150024 1079.76001 910.929993 1079.040039 C 912.799988 1078.26001 914.669983 1077.47998 916.549988 1076.75 C 916.609985 1076.689941 916.659973 1076.670044 916.719971 1076.670044 C 918.309998 1076.030029 919.900024 1075.380005 921.469971 1074.77002 C 923.51001 1073.959961 925.549988 1073.180054 927.559998 1072.400024 C 931.859985 1070.75 936.159973 1069.189941 940.469971 1067.680054 C 943.630005 1066.530029 946.780029 1065.469971 949.940002 1064.439941 C 951.200012 1064.02002 952.429993 1063.599976 953.679993 1063.209961 C 956.280029 1062.369995 958.880005 1061.560059 961.469971 1060.780029 C 963.960022 1060.030029 966.409973 1059.300049 968.869995 1058.599976 C 971.690002 1057.790039 974.48999 1057.040039 977.25 1056.310059 C 980.02002 1055.579956 982.780029 1054.890015 985.549988 1054.209961 C 987.900024 1053.650024 990.23999 1053.089966 992.590027 1052.560059 C 995.77002 1051.859985 998.960022 1051.189941 1002.140015 1050.579956 C 1004.849976 1050.050049 1007.559998 1049.550049 1010.27002 1049.069946 C 1010.719971 1048.98999 1011.159973 1048.900024 1011.580017 1048.849976 C 1013.97998 1048.430054 1016.390015 1048.040039 1018.790039 1047.699951 C 1021.140015 1047.339966 1023.51001 1047 1025.890015 1046.689941 C 1026 1046.689941 1026.089966 1046.660034 1026.199951 1046.660034 C 1027.089966 1046.550049 1027.98999 1046.439941 1028.880005 1046.319946 C 1030.170044 1046.150024 1031.449951 1046.01001 1032.76001 1045.869995 C 1034.300049 1045.699951 1035.800049 1045.530029 1037.339966 1045.400024 C 1039.349976 1045.199951 1041.390015 1045.040039 1043.430054 1044.869995 C 1043.959961 1044.810059 1044.52002 1044.790039 1045.050049 1044.76001 C 1047.449951 1044.560059 1049.859985 1044.420044 1052.26001 1044.310059 C 1055.079956 1044.140015 1057.880005 1044.060059 1060.699951 1043.969971 L 1060.72998 1043.969971 C 1063.550049 1043.890015 1066.349976 1043.859985 1069.170044 1043.859985 C 1076.660034 1043.859985 1084.199951 1044.109985 1091.73999 1044.640015 C 1093.25 1044.75 1094.76001 1044.859985 1096.27002 1045 C 1099.72998 1045.25 1103.22998 1045.609985 1106.689941 1046.030029 C 1107.780029 1046.140015 1108.869995 1046.280029 1109.959961 1046.420044 C 1114.540039 1046.97998 1119.150024 1047.680054 1123.76001 1048.459961 C 1125.300049 1048.709961 1126.829956 1048.98999 1128.369995 1049.27002 C 1129.910034 1049.550049 1131.469971 1049.859985 1133.01001 1050.160034 C 1134.550049 1050.469971 1136.109985 1050.77002 1137.650024 1051.109985 C 1143.880005 1052.420044 1150.109985 1053.930054 1156.400024 1055.660034 C 1157.959961 1056.050049 1159.530029 1056.5 1161.119995 1056.969971 C 1163.23999 1057.560059 1165.369995 1058.199951 1167.52002 1058.839966 C 1170.119995 1059.619995 1172.73999 1060.459961 1175.369995 1061.349976 C 1177.050049 1061.880005 1178.719971 1062.439941 1180.400024 1063.030029 C 1183.5 1064.119995 1186.630005 1065.23999 1189.790039 1066.410034 C 1191.380005 1067 1193 1067.609985 1194.619995 1068.25 C 1201.160034 1070.76001 1207.689941 1073.5 1214.319946 1076.459961 L 1207.810059 1072.619995 Z"/>
    <linearGradient id="linearGradient3" x1="1014.77" y1="637.78" x2="779.97" y2="94.8" gradientUnits="userSpaceOnUse">
        <stop offset="1e-05" stop-color="#5ea0ff" stop-opacity="1"/>
        <stop offset="0.58" stop-color="#7eefff" stop-opacity="1"/>
    </linearGradient>
    <path id="p4" fill="url(#linearGradient3)" stroke="none" d="M 1051.969971 591.27002 C 1051.079956 570.460022 1049.72998 549.700012 1047.75 528.969971 C 1047.359985 524.890015 1046.939941 520.840027 1046.48999 516.789978 C 1039.22998 449.709961 1024.560059 382.969971 997.460022 321.01001 C 971.059998 260.640015 933.570007 204.400024 884.150024 160.369995 C 865.820007 144.079956 845.98999 130 825.369995 116.869995 C 815.22998 110.420044 804.719971 104.550049 793.859985 99.329956 C 783.380005 94.25 772.820007 89.550049 761.450012 87.01001 C 760.440002 86.790039 759.469971 86.589966 758.460022 86.400024 C 758.179993 86.369995 755.390015 85.900024 755.390015 85.900024 L 729.179993 207.219971 L 753.890015 281.829956 C 755.590027 289.820068 757.549988 298.400024 759.780029 307.449951 C 763.049988 320.609985 766.900024 334.689941 771.400024 349.359985 C 772.25 351.820068 773.119995 354.27002 774.02002 356.689941 C 774.039978 356.75 774.059998 356.800049 774.080017 356.849976 C 774.380005 357.660034 774.700012 358.449951 775 359.26001 C 775 359.290039 775.02002 359.310059 775.030029 359.339966 C 775.609985 360.859985 776.179993 362.380005 776.780029 363.880005 C 776.820007 363.98999 776.869995 364.099976 776.909973 364.199951 C 777.289978 365.140015 777.679993 366.070068 778.059998 367.01001 C 778.090027 367.070068 778.109985 367.130005 778.140015 367.189941 C 778.650024 368.439941 779.159973 369.699951 779.690002 370.939941 C 779.76001 371.099976 779.830017 371.26001 779.900024 371.420044 C 780.320007 372.400024 780.75 373.380005 781.179993 374.349976 C 781.219971 374.449951 781.26001 374.540039 781.309998 374.640015 C 781.780029 375.719971 782.25 376.800049 782.73999 377.869995 C 782.830017 378.079956 782.929993 378.280029 783.030029 378.48999 C 783.47998 379.48999 783.950012 380.47998 784.409973 381.469971 C 784.469971 381.599976 784.530029 381.72998 784.590027 381.859985 C 785.030029 382.800049 785.460022 383.73999 785.909973 384.670044 C 786.030029 384.920044 786.159973 385.160034 786.280029 385.410034 C 786.77002 386.420044 787.26001 387.420044 787.76001 388.420044 C 787.840027 388.579956 787.919983 388.75 788 388.910034 C 788.400024 389.719971 788.809998 390.530029 789.219971 391.339966 C 789.359985 391.619995 789.51001 391.900024 789.659973 392.179932 C 790.179993 393.199951 790.710022 394.209961 791.23999 395.22998 C 791.340027 395.429932 791.440002 395.630005 791.549988 395.820068 C 791.909973 396.51001 792.280029 397.199951 792.650024 397.880005 C 792.809998 398.179932 792.97998 398.47998 793.140015 398.780029 C 793.710022 399.829956 794.280029 400.869995 794.859985 401.910034 C 794.98999 402.140015 795.109985 402.369995 795.23999 402.599976 C 795.559998 403.170044 795.880005 403.72998 796.200012 404.300049 C 796.369995 404.589966 796.539978 404.880005 796.700012 405.170044 C 797.330017 406.280029 797.969971 407.380005 798.609985 408.469971 C 798.76001 408.72998 798.909973 409 799.070007 409.26001 C 799.330017 409.699951 799.599976 410.140015 799.859985 410.579956 C 799.98999 410.800049 800.119995 411.01001 800.25 411.219971 C 800.98999 412.459961 801.73999 413.689941 802.5 414.910034 C 802.679993 415.199951 802.849976 415.5 803.030029 415.790039 C 803.200012 416.060059 803.369995 416.320068 803.530029 416.579956 C 803.559998 416.630005 803.590027 416.670044 803.619995 416.719971 C 804.570007 418.23999 805.530029 419.73999 806.51001 421.23999 C 806.51001 421.23999 806.51001 421.23999 806.51001 421.23999 C 806.590027 421.359985 806.659973 421.469971 806.73999 421.589966 C 806.98999 421.969971 807.23999 422.349976 807.48999 422.72998 C 807.48999 422.72998 807.48999 422.72998 807.48999 422.72998 C 808.530029 424.310059 809.590027 425.890015 810.659973 427.459961 L 810.659973 427.459961 C 810.659973 427.459961 810.659973 427.459961 810.659973 427.459961 C 810.659973 427.459961 810.659973 427.459961 810.659973 427.459961 C 810.659973 427.459961 810.659973 427.459961 810.659973 427.459961 C 810.75 427.589966 810.830017 427.709961 810.919983 427.839966 C 811.090027 428.089966 811.27002 428.349976 811.440002 428.599976 C 811.440002 428.599976 811.440002 428.599976 811.440002 428.599976 C 812.590027 430.27002 813.75 431.929932 814.929993 433.589966 C 814.929993 433.589966 814.929993 433.589966 814.929993 433.589966 C 815.039978 433.75 815.159973 433.910034 815.280029 434.070068 C 815.340027 434.150024 815.400024 434.22998 815.460022 434.320068 C 815.460022 434.320068 815.460022 434.320068 815.460022 434.320068 L 815.460022 434.320068 C 816.73999 436.099976 818.030029 437.869995 819.349976 439.630005 C 819.409973 439.700073 819.460022 439.780029 819.52002 439.849976 C 843.950012 472.440063 874.179993 500.919983 909.039978 527.330017 C 909.090027 527.369995 909.150024 527.409973 909.200012 527.450012 C 909.22998 527.469971 909.26001 527.48999 909.289978 527.51001 C 911.320007 529.049988 913.369995 530.580017 915.429993 532.099976 C 915.460022 532.130005 915.5 532.150024 915.530029 532.179993 C 916.97998 533.25 918.419983 534.330017 919.890015 535.390015 C 921.669983 536.679993 923.429993 537.97998 925.22998 539.26001 C 929.919983 542.609985 934.669983 545.909973 939.51001 549.210022 C 941.130005 550.330017 942.780029 551.440002 944.429993 552.559998 C 947.669983 554.710022 950.940002 556.890015 954.23999 559.039978 C 954.549988 559.23999 954.830017 559.429993 955.130005 559.630005 C 958.150024 561.609985 961.190002 563.570007 964.27002 565.5 C 964.859985 565.919983 965.469971 566.280029 966.059998 566.650024 C 967.900024 567.820007 969.75 569 971.590027 570.140015 C 972.539978 570.75 973.52002 571.340027 974.5 571.929993 C 977.5 573.809998 980.539978 575.669983 983.580017 577.52002 C 984.419983 578.030029 985.25 578.539978 986.090027 579.049988 C 988.48999 580.5 990.919983 581.960022 993.349976 583.409973 C 994.700012 584.219971 996.059998 585.02002 997.419983 585.830017 C 1000.330017 587.559998 1003.27002 589.280029 1006.210022 590.98999 C 1009.809998 593.109985 1013.450012 595.210022 1017.109985 597.299988 C 1020.660034 599.340027 1024.209961 601.380005 1027.810059 603.419983 C 1030.829956 605.119995 1033.839966 606.830017 1036.890015 608.530029 C 1040.689941 610.650024 1044.48999 612.780029 1048.339966 614.900024 C 1049.150024 615.349976 1049.959961 615.820007 1050.77002 616.23999 C 1051.380005 616.580017 1052 616.909973 1052.609985 617.25 C 1052.579956 608.590027 1052.439941 599.960022 1052.02002 591.299988 Z"/>
    <linearGradient id="linearGradient4" x1="558.64" y1="98.51" x2="521.95" y2="876.3" gradientUnits="userSpaceOnUse">
        <stop offset="0.03" stop-color="#87e4fe" stop-opacity="1"/>
        <stop offset="1" stop-color="#adfffb" stop-opacity="1"/>
    </linearGradient>
    <path id="p5" fill="url(#linearGradient4)" stroke="none" d="M 747.789978 85.23999 L 747.72998 85.23999 C 735.719971 85.52002 723.929993 88.449951 713.169983 93.76001 C 712.690002 94 712.210022 94.23999 711.73999 94.48999 C 710.859985 94.969971 709.419983 95.75 708.539978 96.22998 C 707.820007 96.640015 707.099976 97.060059 706.380005 97.5 C 706.349976 97.530029 447.850006 256.630005 447.850006 256.630005 C 436.029999 263.469971 434.640015 287.030029 433.149994 315.77002 C 428.679993 432.969971 435.25 539.179993 437.119995 634.619995 C 437.200012 637.919983 437.26001 641.210022 437.320007 644.51001 C 437.350006 646.630005 437.380005 648.76001 437.399994 650.880005 C 437.480011 655.130005 437.51001 659.340027 437.570007 663.539978 C 437.600006 666.919983 437.630005 670.27002 437.630005 673.630005 L 437.630005 680.809998 C 437.630005 682.98999 437.630005 685.140015 437.600006 687.320007 C 437.600006 689.830017 437.570007 692.320007 437.540009 694.809998 C 437.540009 697.349976 437.51001 699.890015 437.459991 702.409973 C 437.429993 705.320007 437.380005 708.219971 437.320007 711.099976 C 437.26001 712.940002 437.23999 714.789978 437.179993 716.659973 C 437.119995 719.01001 437.070007 721.349976 436.980011 723.700012 C 433.570007 837.320007 414.160004 933.340027 345.709991 1012.099976 C 335.26001 1023.329956 324.980011 1033.699951 315.230011 1043.109985 C 308.859985 1049.22998 302.73999 1054.900024 296.98999 1060.119995 L 296.959991 1060.150024 C 296.959991 1060.150024 296.929993 1060.180054 296.899994 1060.180054 C 296.589996 1060.48999 296.290009 1060.77002 295.980011 1061.050049 L 370.040009 1019.060059 L 580.72998 899.630005 L 587.72998 895.659973 C 664.119995 840.130005 723.409973 768.700012 747.599976 652.77002 C 749.869995 641.909973 751.080017 630.849976 751.159973 619.75 L 751.159973 619.75 C 750.710022 615.700012 750.289978 611.619995 749.929993 607.539978 C 742.719971 527.390015 750.73999 442.319946 753.309998 353.089966 L 753.840027 283.670044 L 753.869995 281.829956 L 753.929993 272.109985 L 753.960022 267.329956 L 753.960022 267.219971 L 755.380005 85.910034 C 752.869995 85.550049 750.320007 85.319946 747.780029 85.27002 Z"/>
    <linearGradient id="linearGradient5" x1="759.92" y1="1153.16" x2="1368.33" y2="1153.16" gradientUnits="userSpaceOnUse">
        <stop offset="1e-05" stop-color="#35d0b0" stop-opacity="1"/>
        <stop offset="1" stop-color="#51b07a" stop-opacity="1"/>
    </linearGradient>
    <path id="p6" fill="url(#linearGradient5)" stroke="none" d="M 1214.369995 1076.540039 C 1214.369995 1076.540039 1214.310059 1076.51001 1214.290039 1076.51001 C 1207.670044 1073.550049 1201.130005 1070.810059 1194.589966 1068.300049 C 1192.969971 1067.660034 1191.349976 1067.040039 1189.76001 1066.459961 C 1186.599976 1065.290039 1183.469971 1064.170044 1180.369995 1063.079956 C 1178.689941 1062.48999 1177.02002 1061.930054 1175.339966 1061.400024 C 1172.709961 1060.51001 1170.089966 1059.670044 1167.48999 1058.890015 C 1165.339966 1058.25 1163.219971 1057.599976 1161.089966 1057.02002 C 1159.530029 1056.569946 1157.930054 1056.130005 1156.369995 1055.709961 C 1150.079956 1053.97998 1143.849976 1052.469971 1137.619995 1051.160034 C 1136.079956 1050.819946 1134.52002 1050.52002 1132.97998 1050.209961 C 1131.439941 1049.900024 1129.880005 1049.599976 1128.339966 1049.319946 C 1126.800049 1049.040039 1125.27002 1048.76001 1123.72998 1048.51001 C 1119.119995 1047.72998 1114.51001 1047.030029 1109.930054 1046.469971 C 1108.839966 1046.329956 1107.75 1046.189941 1106.660034 1046.079956 C 1103.199951 1045.660034 1099.699951 1045.300049 1096.23999 1045.050049 C 1094.72998 1044.910034 1093.219971 1044.800049 1091.709961 1044.689941 C 1084.170044 1044.160034 1076.619995 1043.910034 1069.140015 1043.910034 C 1066.319946 1043.910034 1063.52002 1043.939941 1060.699951 1044.02002 L 1060.670044 1044.02002 C 1057.849976 1044.099976 1055.050049 1044.189941 1052.22998 1044.359985 C 1049.829956 1044.469971 1047.420044 1044.609985 1045.02002 1044.810059 C 1044.48999 1044.839966 1043.930054 1044.869995 1043.400024 1044.920044 C 1041.359985 1045.089966 1039.319946 1045.26001 1037.310059 1045.449951 C 1035.77002 1045.589966 1034.27002 1045.76001 1032.72998 1045.920044 C 1031.420044 1046.060059 1030.130005 1046.199951 1028.849976 1046.369995 C 1027.959961 1046.47998 1027.060059 1046.589966 1026.170044 1046.709961 C 1026.060059 1046.709961 1025.969971 1046.73999 1025.859985 1046.73999 C 1023.48999 1047.050049 1021.109985 1047.380005 1018.76001 1047.75 C 1016.359985 1048.089966 1013.950012 1048.47998 1011.549988 1048.900024 C 1011.130005 1048.959961 1010.679993 1049.040039 1010.23999 1049.119995 C 1007.530029 1049.589966 1004.820007 1050.099976 1002.109985 1050.630005 C 998.929993 1051.23999 995.73999 1051.920044 992.559998 1052.609985 C 990.210022 1053.140015 987.869995 1053.699951 985.52002 1054.26001 C 982.75 1054.930054 979.98999 1055.630005 977.219971 1056.359985 C 974.450012 1057.089966 971.659973 1057.839966 968.840027 1058.650024 C 966.380005 1059.349976 963.919983 1060.069946 961.440002 1060.829956 C 958.840027 1061.609985 956.23999 1062.420044 953.650024 1063.26001 C 952.390015 1063.650024 951.159973 1064.069946 949.909973 1064.48999 C 946.75 1065.52002 943.599976 1066.589966 940.440002 1067.72998 C 936.140015 1069.23999 931.840027 1070.800049 927.530029 1072.449951 C 925.52002 1073.22998 923.47998 1074.01001 921.440002 1074.819946 C 919.880005 1075.430054 918.280029 1076.079956 916.690002 1076.719971 C 916.630005 1076.719971 916.580017 1076.75 916.52002 1076.800049 C 914.650024 1077.530029 912.780029 1078.310059 910.900024 1079.089966 C 909.109985 1079.819946 907.320007 1080.569946 905.539978 1081.349976 C 902.909973 1082.469971 900.26001 1083.609985 897.630005 1084.790039 C 896.01001 1085.48999 894.419983 1086.189941 892.820007 1086.939941 C 890.5 1087.969971 888.150024 1089.040039 885.840027 1090.119995 C 883.380005 1091.23999 880.919983 1092.380005 878.460022 1093.560059 C 873.650024 1095.849976 868.820007 1098.199951 864.02002 1100.630005 C 862.400024 1101.410034 860.780029 1102.219971 859.190002 1103.060059 C 834.27002 1115.660034 808.960022 1129.849976 783.030029 1145.130005 C 780.400024 1146.689941 777.809998 1148.22998 775.179993 1149.800049 C 770.099976 1152.819946 765.01001 1155.859985 759.900024 1158.959961 C 767.299988 1163.180054 774.76001 1167.310059 782.359985 1171.25 C 800.830017 1180.859985 819.48999 1190.079956 838.429993 1198.73999 C 842.150024 1200.439941 845.859985 1202.089966 849.599976 1203.73999 C 911.309998 1230.97998 976.460022 1251.650024 1043.680054 1259.170044 C 1109.160034 1266.48999 1176.609985 1262.130005 1239.439941 1241.349976 C 1262.709961 1233.640015 1284.810059 1223.5 1306.48999 1212.209961 C 1317.160034 1206.650024 1327.5 1200.47998 1337.439941 1193.689941 C 1347.079956 1187.150024 1356.439941 1180.359985 1364.319946 1171.790039 C 1365.02002 1171.040039 1365.689941 1170.280029 1366.359985 1169.5 C 1366.530029 1169.280029 1368.319946 1167.099976 1368.319946 1167.099976 L 1214.47998 1076.640015 C 1214.47998 1076.640015 1214.400024 1076.599976 1214.359985 1076.579956 Z"/>
    <linearGradient id="linearGradient6" x1="1326.25" y1="996.16" x2="757.58" y2="530.23" gradientUnits="userSpaceOnUse">
        <stop offset="1e-05" stop-color="#52af78" stop-opacity="1"/>
        <stop offset="0.77" stop-color="#adfffb" stop-opacity="1"/>
    </linearGradient>
    <path id="p7" fill="url(#linearGradient6)" stroke="none" d="M 1382.780029 1118.800049 C 1382.780029 1118.800049 1374.22998 815.320007 1374.22998 815.320007 C 1374.22998 801.690002 1354.530029 788.719971 1330.369995 773.049988 C 1231.25 710.609985 1136.069946 663.22998 1052.560059 617.219971 C 1051.949951 616.880005 1051.329956 616.549988 1050.719971 616.210022 C 1049.910034 615.789978 1049.099976 615.320007 1048.290039 614.869995 C 1044.430054 612.75 1040.630005 610.619995 1036.839966 608.5 C 1033.790039 606.799988 1030.780029 605.090027 1027.76001 603.390015 C 1024.160034 601.349976 1020.609985 599.309998 1017.060059 597.27002 C 1013.400024 595.169983 1009.77002 593.080017 1006.159973 590.960022 C 1003.219971 589.25 1000.280029 587.539978 997.369995 585.799988 C 996.01001 584.98999 994.659973 584.190002 993.299988 583.380005 C 990.869995 581.929993 988.450012 580.47998 986.039978 579.02002 C 985.200012 578.51001 984.369995 578 983.530029 577.48999 C 980.47998 575.630005 977.450012 573.780029 974.450012 571.900024 C 973.469971 571.309998 972.48999 570.72998 971.539978 570.109985 C 969.700012 568.960022 967.849976 567.789978 966.01001 566.619995 C 965.419983 566.26001 964.809998 565.890015 964.219971 565.469971 C 961.150024 563.539978 958.099976 561.590027 955.080017 559.599976 C 954.77002 559.400024 954.48999 559.210022 954.190002 559.01001 C 950.890015 556.859985 947.619995 554.679993 944.380005 552.530029 C 942.72998 551.409973 941.080017 550.299988 939.460022 549.179993 C 934.630005 545.880005 929.880005 542.590027 925.179993 539.22998 C 923.380005 537.950012 921.609985 536.650024 919.840027 535.359985 C 918.369995 534.299988 916.929993 533.219971 915.47998 532.150024 C 915.340027 532.049988 915.200012 531.940002 915.059998 531.840027 C 913.109985 530.390015 911.159973 528.940002 909.23999 527.47998 C 909.210022 527.460022 909.179993 527.440002 909.150024 527.419983 C 909.099976 527.380005 909.039978 527.340027 908.98999 527.299988 C 874.119995 500.890015 843.900024 472.410034 819.469971 439.820068 C 819.409973 439.75 819.359985 439.670044 819.299988 439.599976 C 817.98999 437.839966 816.690002 436.079956 815.409973 434.300049 L 815.409973 434.300049 C 815.409973 434.300049 815.409973 434.300049 815.409973 434.300049 C 815.349976 434.219971 815.289978 434.140015 815.22998 434.050049 C 815.109985 433.890015 815 433.72998 814.880005 433.570068 C 814.880005 433.570068 814.880005 433.570068 814.880005 433.570068 C 813.700012 431.920044 812.539978 430.26001 811.390015 428.579956 C 811.390015 428.579956 811.390015 428.579956 811.390015 428.579956 C 811.219971 428.329956 811.039978 428.070068 810.869995 427.820068 C 810.780029 427.689941 810.700012 427.570068 810.609985 427.439941 C 810.609985 427.439941 810.609985 427.439941 810.609985 427.439941 C 810.609985 427.439941 810.609985 427.439941 810.609985 427.439941 L 810.609985 427.439941 C 810.609985 427.439941 810.609985 427.439941 810.609985 427.439941 C 809.539978 425.869995 808.48999 424.300049 807.440002 422.709961 C 807.440002 422.709961 807.440002 422.709961 807.440002 422.709961 C 807.190002 422.329956 806.940002 421.949951 806.690002 421.570068 C 806.609985 421.449951 806.539978 421.339966 806.460022 421.219971 C 806.460022 421.219971 806.460022 421.219971 806.460022 421.219971 C 805.48999 419.719971 804.52002 418.209961 803.570007 416.699951 C 803.539978 416.650024 803.51001 416.609985 803.47998 416.560059 C 803.309998 416.290039 803.140015 416.030029 802.97998 415.77002 C 802.799988 415.47998 802.630005 415.179932 802.450012 414.890015 C 801.690002 413.670044 800.940002 412.429932 800.200012 411.199951 C 800.679993 412 801.159973 412.810059 801.650024 413.599976 C 801.030029 412.589966 800.419983 411.570068 799.809998 410.550049 C 799.549988 410.109985 799.280029 409.670044 799.02002 409.22998 C 798.869995 408.969971 798.719971 408.699951 798.559998 408.439941 C 797.919983 407.339966 797.280029 406.23999 796.650024 405.140015 C 797 405.73999 797.330017 406.349976 797.679993 406.949951 C 797.159973 406.060059 796.650024 405.160034 796.150024 404.27002 C 795.830017 403.699951 795.51001 403.140015 795.190002 402.570068 C 795.059998 402.339966 794.940002 402.109985 794.809998 401.880005 C 794.22998 400.839966 793.659973 399.800049 793.090027 398.75 C 793.349976 399.22998 793.599976 399.709961 793.859985 400.189941 C 793.440002 399.420044 793.02002 398.640015 792.599976 397.859985 C 792.22998 397.179932 791.869995 396.48999 791.5 395.800049 C 791.400024 395.599976 791.299988 395.400024 791.190002 395.209961 C 790.659973 394.199951 790.130005 393.179932 789.609985 392.160034 C 789.809998 392.540039 789.98999 392.929932 790.190002 393.310059 C 789.849976 392.650024 789.51001 391.97998 789.169983 391.320068 C 788.76001 390.51001 788.359985 389.699951 787.950012 388.890015 C 787.869995 388.72998 787.789978 388.560059 787.710022 388.400024 C 787.210022 387.400024 786.719971 386.400024 786.22998 385.390015 C 786.380005 385.689941 786.52002 386 786.659973 386.300049 C 786.390015 385.75 786.130005 385.199951 785.859985 384.640015 C 785.409973 383.709961 784.97998 382.77002 784.539978 381.829956 C 784.47998 381.699951 784.419983 381.570068 784.359985 381.439941 C 783.900024 380.449951 783.429993 379.459961 782.97998 378.459961 C 783.090027 378.689941 783.190002 378.929932 783.289978 379.170044 C 783.090027 378.72998 782.890015 378.290039 782.690002 377.839966 C 782.210022 376.77002 781.73999 375.689941 781.26001 374.609985 C 781.219971 374.51001 781.179993 374.420044 781.130005 374.320068 C 780.700012 373.339966 780.27002 372.369995 779.849976 371.390015 C 779.919983 371.560059 779.98999 371.73999 780.059998 371.910034 C 779.919983 371.579956 779.780029 371.25 779.640015 370.920044 C 779.109985 369.679932 778.609985 368.420044 778.090027 367.170044 C 778.059998 367.109985 778.039978 367.050049 778.01001 366.98999 C 777.630005 366.050049 777.23999 365.119995 776.859985 364.179932 C 776.900024 364.290039 776.950012 364.410034 776.98999 364.52002 C 776.900024 364.300049 776.809998 364.079956 776.72998 363.859985 C 776.130005 362.359985 775.559998 360.839966 774.97998 359.320068 C 774.97998 359.290039 774.960022 359.27002 774.950012 359.23999 C 774.640015 358.439941 774.330017 357.640015 774.030029 356.829956 C 774.049988 356.890015 774.070007 356.939941 774.090027 357 C 774.049988 356.890015 774.01001 356.780029 773.969971 356.670044 C 773.070007 354.25 772.200012 351.810059 771.349976 349.339966 C 766.849976 334.670044 763 320.589966 759.72998 307.429932 C 757.5 298.380005 755.539978 289.800049 753.840027 281.810059 L 753.809998 283.650024 L 753.280029 353.070068 C 750.710022 442.300049 742.690002 527.369995 749.900024 607.52002 C 750.26001 611.599976 750.679993 615.679993 751.130005 619.72998 C 761.349976 711.890015 793.359985 797.390015 879.190002 875.01001 C 888.809998 883.710022 899.349976 891.349976 910.539978 897.929993 C 910.539978 897.929993 910.539978 897.929993 910.539978 897.929993 L 910.539978 897.929993 C 911.080017 898.169983 911.619995 898.419983 912.169983 898.659973 C 984.01001 930.809998 1052.319946 978.590027 1126.25 1024.76001 L 1199.380005 1067.75 L 1199.380005 1067.75 C 1199.380005 1067.75 1206.810059 1072.109985 1206.810059 1072.109985 L 1207.72998 1072.650024 L 1214.23999 1076.48999 C 1214.23999 1076.48999 1214.300049 1076.52002 1214.319946 1076.52002 C 1214.359985 1076.540039 1214.400024 1076.560059 1214.439941 1076.579956 L 1368.280029 1167.040039 C 1369.869995 1165.030029 1371.329956 1162.930054 1372.640015 1160.780029 C 1372.640015 1160.75 1372.670044 1160.75 1372.670044 1160.719971 C 1378.449951 1150.189941 1381.810059 1138.51001 1382.589966 1126.52002 C 1382.650024 1125.709961 1382.670044 1124.930054 1382.699951 1124.119995 C 1382.72998 1123.199951 1382.76001 1122.25 1382.76001 1121.300049 C 1382.76001 1120.459961 1382.76001 1119.619995 1382.72998 1118.790039 Z"/>
</svg>
