<?xml version="1.0" encoding="UTF-8"?>
<svg width="1500" height="1500" viewBox="0 0 1500 1500" xmlns="http://www.w3.org/2000/svg">
    <style>
        rect {
            fill: #0D0D0D;
        }
        @media (prefers-color-scheme: light) {
            rect {
                fill: #FFFFFF;
            }
        }
    </style>
    <rect x="0" y="0" width="1500" height="1500" rx="256" ry="256" fill="#0D0D0D"/>
    <g id="Group">
    <path id="p1" fill="#ffffff" stroke="none" d="M 747.461365 665.905334 C 727.531189 761.42041 678.681946 820.27179 615.743958 866.023193 C 624.938782 860.824341 634.619629 856.51532 644.671204 853.269104 C 736.371704 823.66626 811.157349 836.552124 881.73291 867.909912 C 872.521667 862.488586 863.837708 856.194031 855.903503 849.026062 C 785.187927 785.074707 758.814819 714.630981 750.39447 638.700012 L 750.39447 638.700012 C 750.328613 647.837097 749.323425 656.957764 747.461365 665.905334 Z"/>
    <linearGradient id="linearGradient1" x1="501.485098" y1="669.027907" x2="254.380046" y2="1052.15114" gradientUnits="userSpaceOnUse">
        <stop offset="0.02" stop-color="#5eeeff" stop-opacity="1"/>
        <stop offset="0.68" stop-color="#70e4c9" stop-opacity="1"/>
    </linearGradient>
    <path id="p2" fill="url(#linearGradient1)" stroke="none" d="M 363.127045 1009.242249 L 368.424713 1006.251465 C 368.515381 1006.202087 368.589508 1006.160889 368.680145 1006.11145 C 368.704865 1006.086731 368.746063 1006.086731 368.770782 1006.062012 L 369.298065 1005.740662 L 375.378479 1002.288574 C 375.633881 1002.057861 375.881042 1001.827148 376.136475 1001.571777 C 376.136475 1001.571777 376.152954 1001.563477 376.185913 1001.546997 L 376.210632 1001.522278 C 380.956299 997.221558 385.990356 992.541748 391.238617 987.50769 C 399.271667 979.754822 407.741394 971.210938 416.351196 961.958435 C 472.747345 897.076111 488.739319 817.956665 491.548828 724.344788 C 491.614716 722.40863 491.664185 720.480652 491.713623 718.544495 C 491.763062 717.003784 491.77951 715.479553 491.828949 713.963623 C 491.878387 711.590759 491.919586 709.201416 491.944305 706.803894 C 491.993744 704.735901 492.010223 702.634949 492.010223 700.542175 C 492.034912 698.490662 492.059631 696.447388 492.059631 694.371155 C 492.084351 692.575073 492.084351 690.80365 492.084351 689.007568 L 492.084351 687.722229 C 492.084351 683.437988 492.059631 679.137207 492.034912 674.786987 C 491.985504 671.334839 491.969025 667.857971 491.894867 664.356384 C 491.870148 662.60968 491.845428 660.854797 491.828949 659.108093 C 491.77951 656.389221 491.738342 653.678589 491.664185 650.959717 C 485.493134 654.55188 479.39624 658.234802 473.365265 662.074158 C 458.914032 671.30188 444.635773 680.809753 430.670593 690.754211 C 427.910553 692.706909 425.21637 694.692505 422.497498 696.669861 C 377.635956 729.494141 336.045349 767.451355 302.990326 812.329346 C 270.792206 856.037476 246.116302 905.941284 235.067749 959.33844 C 230.997665 979.112122 229.127411 999.067017 228.229355 1019.186768 C 227.817413 1029.081909 227.949234 1039.001587 228.715454 1048.904907 C 229.407547 1058.47876 230.396225 1067.937134 233.271652 1077.098877 C 233.502335 1077.906372 233.774231 1078.689087 234.054352 1079.49646 C 234.144989 1079.702393 234.977127 1081.894043 234.977127 1081.894043 L 363.019928 1009.299927 L 363.135284 1009.234009 Z"/>
    <linearGradient id="linearGradient2" x1="234.968886" y1="1034.676153" x2="1131.960553" y2="1034.676153" gradientUnits="userSpaceOnUse">
        <stop offset="1e-05" stop-color="#71e3b2" stop-opacity="1"/>
        <stop offset="0.95" stop-color="#adfffb" stop-opacity="1"/>
    </linearGradient>
    <path id="p3" fill="url(#linearGradient2)" stroke="none" d="M 1126.596924 1011.870544 L 1125.838989 1011.425598 L 1119.717407 1007.833374 L 1119.717407 1007.833374 C 1119.717407 1007.833374 1059.465332 972.405579 1059.465332 972.405579 C 998.562378 934.365967 942.281555 894.999817 883.084106 868.511353 C 882.639221 868.313599 882.194336 868.107605 881.74115 867.909912 L 881.74115 867.909912 C 881.74115 867.909912 881.74115 867.909912 881.74115 867.909912 C 811.157349 836.552124 736.371704 823.65802 644.679443 853.269104 C 634.627808 856.51532 624.94696 860.824341 615.752258 866.023193 L 609.984924 869.294067 L 436.396729 967.692871 L 375.378479 1002.288574 L 368.770782 1006.062012 C 368.770782 1006.062012 368.704865 1006.086731 368.680145 1006.11145 C 368.589508 1006.160889 368.515381 1006.202087 368.424713 1006.251465 L 363.127045 1009.242249 L 363.011688 1009.308228 L 234.968887 1081.902344 C 235.726883 1083.85498 236.624924 1085.766357 237.638336 1087.58728 C 237.638336 1087.58728 237.638336 1087.611938 237.663055 1087.636719 C 242.795975 1096.106445 249.74971 1103.315552 257.96402 1108.786255 C 258.483093 1109.156982 259.002136 1109.461792 259.537689 1109.799683 C 260.097931 1110.14563 260.658173 1110.491699 261.226685 1110.837769 C 261.959961 1111.258057 262.684998 1111.686401 263.442993 1112.081909 C 263.467682 1112.106567 483.491058 1230.987549 483.491058 1230.987549 C 493.229584 1236.623047 510.605713 1227.906128 531.738831 1217.104736 C 617.22699 1172.012573 690.307251 1123.583496 757.611877 1082.932129 C 761.822021 1080.378174 766.015686 1077.865234 770.201172 1075.385254 C 772.368042 1074.099854 774.501892 1072.831055 776.668762 1071.537598 C 798.032593 1058.948364 818.885559 1047.25708 839.417236 1036.875977 C 840.727234 1036.18396 842.061951 1035.516479 843.396667 1034.873779 C 847.35968 1032.871826 851.339111 1030.935669 855.293823 1029.048828 C 857.320679 1028.084961 859.347412 1027.137451 861.374268 1026.2146 C 863.285706 1025.31665 865.221863 1024.443359 867.125061 1023.594666 C 868.43512 1022.976746 869.745117 1022.399902 871.088074 1021.823242 C 873.254944 1020.859253 875.438293 1019.911865 877.605164 1018.989075 C 879.079956 1018.346436 880.554749 1017.720215 882.02124 1017.127075 C 883.561951 1016.484375 885.102661 1015.841675 886.651611 1015.240234 C 886.70105 1015.190796 886.742188 1015.174438 886.791626 1015.174438 C 888.101685 1014.647095 889.411682 1014.111572 890.7052 1013.609009 C 892.385986 1012.941528 894.066711 1012.29895 895.722778 1011.656311 C 899.265564 1010.296875 902.80835 1009.011475 906.359375 1007.767517 C 908.962891 1006.820007 911.558228 1005.946655 914.161743 1005.098022 C 915.19989 1004.752014 916.213257 1004.405884 917.243103 1004.084595 C 919.385315 1003.392578 921.527466 1002.72522 923.661316 1002.082581 C 925.712891 1001.4646 927.731384 1000.86322 929.75824 1000.286377 C 932.081665 999.619141 934.38855 999.001221 936.662537 998.39978 C 938.944763 997.798218 941.21875 997.229736 943.500916 996.669434 C 945.437134 996.20813 947.365051 995.746704 949.301208 995.31012 C 951.921265 994.733276 954.5495 994.181274 957.169495 993.678711 C 959.402222 993.242065 961.63501 992.830139 963.867859 992.43457 C 964.238525 992.368713 964.601074 992.294556 964.947144 992.253357 C 966.9245 991.907349 968.910095 991.58606 970.887512 991.305847 C 972.823669 991.009277 974.776306 990.729126 976.737183 990.473694 C 976.82782 990.473694 976.901917 990.449097 976.992554 990.449097 C 977.72583 990.358398 978.467346 990.2677 979.200684 990.168823 C 980.26355 990.02887 981.318054 989.913513 982.3974 989.798096 C 983.66626 989.658081 984.9021 989.518066 986.170837 989.410889 C 987.826904 989.246094 989.50769 989.11438 991.188477 988.974243 C 991.625061 988.924866 992.086548 988.908325 992.523193 988.883606 C 994.500488 988.718872 996.486145 988.603516 998.463501 988.512939 C 1000.786865 988.372803 1003.093872 988.306885 1005.417236 988.232666 L 1005.441956 988.232666 C 1007.765442 988.16687 1010.072266 988.14209 1012.395752 988.14209 C 1018.566772 988.14209 1024.778931 988.348022 1030.991211 988.78479 C 1032.235352 988.875366 1033.47937 988.966003 1034.723511 989.08136 C 1037.574219 989.287354 1040.457886 989.583923 1043.308472 989.929993 C 1044.206665 990.02063 1045.104614 990.135986 1046.002686 990.251343 C 1049.776245 990.712646 1053.574463 991.289429 1057.372559 991.932007 C 1058.641479 992.138 1059.901978 992.368713 1061.170776 992.599426 C 1062.439575 992.830139 1063.724854 993.08551 1064.993652 993.332703 C 1066.262573 993.588074 1067.547729 993.835327 1068.81665 994.115356 C 1073.949585 995.194702 1079.082397 996.438843 1084.264771 997.864197 C 1085.550049 998.185547 1086.843628 998.556274 1088.153564 998.943481 C 1089.900269 999.429626 1091.655151 999.956787 1093.426636 1000.484131 C 1095.568726 1001.126831 1097.727417 1001.818848 1099.894287 1002.552124 C 1101.278442 1002.988831 1102.654297 1003.450195 1104.038452 1003.93634 C 1106.592529 1004.834351 1109.171387 1005.757141 1111.774902 1006.72113 C 1113.084961 1007.207214 1114.419678 1007.709778 1115.754395 1008.237061 C 1121.1427 1010.305115 1126.522705 1012.562622 1131.985229 1015.001343 L 1126.621704 1011.837524 Z"/>
    <linearGradient id="linearGradient3" x1="967.575384" y1="653.571483" x2="774.12291" y2="206.208516" gradientUnits="userSpaceOnUse">
        <stop offset="1e-05" stop-color="#5ea0ff" stop-opacity="1"/>
        <stop offset="0.58" stop-color="#7eefff" stop-opacity="1"/>
    </linearGradient>
    <path id="p4" fill="url(#linearGradient3)" stroke="none" d="M 998.224548 615.25177 C 997.491272 598.106323 996.379028 581.002075 994.747742 563.922546 C 994.426392 560.561035 994.080322 557.224243 993.709595 553.88739 C 987.728027 498.619995 975.641418 443.63269 953.31366 392.583618 C 931.562561 342.844604 900.674438 296.508301 859.957153 260.231812 C 844.85498 246.810425 828.516968 235.209961 811.528137 224.39209 C 803.173706 219.077881 794.514465 214.241577 785.566895 209.940796 C 776.932434 205.755371 768.231995 201.883057 758.864258 199.790283 C 758.032104 199.609131 757.232849 199.444214 756.400757 199.28772 C 756.170044 199.263062 753.871399 198.875854 753.871399 198.875854 L 732.276855 298.831665 L 752.635498 360.303101 C 754.036194 366.88623 755.651001 373.9552 757.488342 381.411499 C 760.182434 392.254028 763.354492 403.854614 767.062073 415.941284 C 767.76239 417.96814 768.479187 419.986694 769.220703 421.980469 C 769.237122 422.029907 769.253662 422.071167 769.270142 422.112305 C 769.517273 422.779785 769.780945 423.430542 770.028137 424.098022 C 770.028137 424.122681 770.044617 424.13916 770.052856 424.163818 C 770.530701 425.416138 771.000305 426.668579 771.49469 427.904419 C 771.527649 427.994995 771.568787 428.085571 771.601746 428.167969 C 771.914856 428.942505 772.236145 429.70874 772.549255 430.483276 C 772.573975 430.532715 772.590454 430.582031 772.615173 430.63147 C 773.0354 431.661377 773.455505 432.699463 773.892212 433.721069 C 773.94989 433.852905 774.007568 433.984863 774.065247 434.116699 C 774.411255 434.924072 774.765564 435.731445 775.119812 436.53064 C 775.152771 436.613037 775.18573 436.687256 775.226929 436.769653 C 775.614197 437.659424 776.001404 438.549316 776.40509 439.430786 C 776.479309 439.60376 776.561646 439.768677 776.644104 439.94165 C 777.014771 440.765503 777.402039 441.581177 777.781006 442.396851 C 777.830444 442.503906 777.879944 442.611084 777.929382 442.71814 C 778.29187 443.492676 778.646179 444.26709 779.016846 445.033325 C 779.115784 445.23938 779.222839 445.437134 779.321777 445.643066 C 779.725464 446.47522 780.12915 447.299072 780.541138 448.123047 C 780.607056 448.254761 780.672913 448.394897 780.738831 448.526733 C 781.06842 449.19397 781.406189 449.86145 781.744019 450.528687 C 781.859375 450.759521 781.982971 450.990234 782.106506 451.220825 C 782.534973 452.061157 782.971619 452.893311 783.408264 453.733765 C 783.490723 453.898438 783.573059 454.063354 783.663696 454.219971 C 783.960266 454.78833 784.265198 455.356812 784.570007 455.917114 C 784.701843 456.164185 784.841858 456.411377 784.973755 456.658691 C 785.443359 457.523682 785.912964 458.380615 786.390808 459.237427 C 786.497925 459.427002 786.596802 459.616455 786.703918 459.805908 C 786.967529 460.275635 787.231201 460.736938 787.494873 461.206543 C 787.634949 461.445435 787.774963 461.684448 787.906799 461.92334 C 788.425903 462.837891 788.953125 463.744141 789.480469 464.642212 C 789.604065 464.856445 789.7276 465.078857 789.859497 465.293091 C 790.073669 465.65564 790.296082 466.018188 790.510315 466.380615 C 790.617432 466.562012 790.724548 466.734985 790.831665 466.907959 C 791.441345 467.929565 792.059265 468.942993 792.685425 469.948242 C 792.83374 470.187012 792.973816 470.434326 793.122131 470.673218 C 793.262207 470.895752 793.402222 471.109985 793.534119 471.324097 C 793.558777 471.365234 793.583496 471.398315 793.608215 471.439453 C 794.39093 472.691772 795.181885 473.927612 795.989319 475.163452 C 795.989319 475.163452 795.989319 475.163452 795.989319 475.163452 C 796.055237 475.262329 796.112854 475.352905 796.178772 475.451782 C 796.384766 475.764893 796.590759 476.078003 796.796692 476.391052 C 796.796692 476.391052 796.796692 476.391052 796.796692 476.391052 C 797.653625 477.692932 798.526917 478.994629 799.408447 480.288147 L 799.408447 480.288147 C 799.408447 480.288147 799.408447 480.288147 799.408447 480.288147 C 799.408447 480.288147 799.408447 480.288147 799.408447 480.288147 C 799.408447 480.288147 799.408447 480.288147 799.408447 480.288147 C 799.482666 480.395264 799.548584 480.49408 799.622681 480.601196 C 799.762817 480.80719 799.911072 481.021423 800.051147 481.227417 C 800.051147 481.227417 800.051147 481.227417 800.051147 481.227417 C 800.998657 482.603333 801.954346 483.970947 802.926575 485.338684 C 802.926575 485.338684 802.926575 485.338684 802.926575 485.338684 C 803.017151 485.47052 803.116028 485.602356 803.214966 485.734192 C 803.264404 485.80011 803.313843 485.865967 803.363281 485.940186 C 803.363281 485.940186 803.363281 485.940186 803.363281 485.940186 L 803.363281 485.940186 C 804.417847 487.406677 805.480713 488.86499 806.568176 490.315063 C 806.617615 490.372742 806.658875 490.43866 806.708313 490.496277 C 826.836243 517.347351 851.742798 540.812073 880.46405 562.571411 C 880.50531 562.604309 880.554749 562.637268 880.595947 562.670227 C 880.620605 562.686707 880.645386 562.703186 880.670044 562.719666 C 882.34259 563.988464 884.031616 565.249084 885.728821 566.501343 C 885.753601 566.526123 885.786499 566.542603 885.811279 566.567322 C 887.005859 567.448853 888.192322 568.338684 889.403442 569.212036 C 890.869995 570.274841 892.320068 571.345947 893.803101 572.400574 C 897.667175 575.160583 901.58075 577.879456 905.56842 580.598389 C 906.903137 581.521179 908.262634 582.435669 909.622009 583.358459 C 912.291443 585.129883 914.985657 586.925964 917.704529 588.697327 C 917.9599 588.862122 918.190613 589.018677 918.437805 589.183472 C 920.926025 590.814758 923.430664 592.429626 925.968262 594.019775 C 926.454346 594.365784 926.956909 594.662415 927.443054 594.967285 C 928.959045 595.931213 930.483276 596.903442 931.999268 597.842651 C 932.781921 598.345276 933.589417 598.83136 934.39679 599.317444 C 936.86853 600.866394 939.373169 602.398865 941.877869 603.923096 C 942.569885 604.343262 943.253784 604.763428 943.945862 605.183655 C 945.923218 606.378296 947.925293 607.581238 949.927368 608.775818 C 951.039673 609.443176 952.160156 610.102356 953.28064 610.769714 C 955.678223 612.195068 958.100525 613.612183 960.522766 615.021057 C 963.488831 616.7677 966.487854 618.497925 969.503296 620.219849 C 972.428223 621.900696 975.353027 623.581421 978.319153 625.262146 C 980.807251 626.662781 983.28717 628.071716 985.80011 629.472351 C 988.930908 631.218994 992.061768 632.973938 995.233765 634.720581 C 995.901184 635.091309 996.568481 635.478577 997.235901 635.824585 C 997.738464 636.104736 998.249329 636.376587 998.751892 636.656738 C 998.727112 629.52179 998.611755 622.411499 998.265808 615.276428 Z"/>
    <linearGradient id="linearGradient4" x1="591.768412" y1="209.265197" x2="561.539403" y2="850.088877" gradientUnits="userSpaceOnUse">
        <stop offset="0.03" stop-color="#87e4fe" stop-opacity="1"/>
        <stop offset="1" stop-color="#adfffb" stop-opacity="1"/>
    </linearGradient>
    <path id="p5" fill="url(#linearGradient4)" stroke="none" d="M 747.60968 198.332031 L 747.560242 198.332031 C 737.665161 198.562744 727.951355 200.976685 719.086182 205.351685 C 718.690674 205.549438 718.295227 205.74707 717.907959 205.953125 C 717.182922 206.348511 715.996521 206.991211 715.271484 207.386719 C 714.678284 207.724487 714.085083 208.070557 713.491882 208.433105 C 713.467163 208.457764 500.48819 339.540771 500.48819 339.540771 C 490.749634 345.17627 489.604431 364.587402 488.376801 388.266479 C 484.693939 484.82782 490.106995 572.334595 491.647675 650.967957 C 491.713623 653.686829 491.763062 656.397461 491.812469 659.116333 C 491.837189 660.863037 491.861908 662.61792 491.878387 664.364624 C 491.944305 667.866211 491.969025 671.334839 492.018463 674.795227 C 492.043182 677.580017 492.067902 680.340088 492.067902 683.108398 L 492.067902 689.024048 C 492.067902 690.820129 492.067902 692.591553 492.043182 694.387634 C 492.043182 696.455688 492.018463 698.507141 491.993744 700.558655 C 491.993744 702.651367 491.969025 704.744141 491.927826 706.820313 C 491.903107 709.217896 491.861908 711.607178 491.812469 713.980042 C 491.763062 715.496033 491.746552 717.020264 491.697113 718.560974 C 491.647675 720.497131 491.606506 722.425049 491.532349 724.361267 C 488.722839 817.973145 472.730865 897.084351 416.334686 961.974915 C 407.724915 971.227356 399.255188 979.771179 391.222137 987.52417 C 385.973846 992.566406 380.93158 997.238037 376.194122 1001.538757 L 376.169403 1001.563477 C 376.169403 1001.563477 376.144684 1001.588257 376.119965 1001.588257 C 375.864563 1001.843628 375.617401 1002.074341 375.362 1002.305054 L 436.38028 967.709351 L 609.968445 869.310547 L 615.735718 866.039612 C 678.673706 820.28833 727.522949 761.43689 747.453125 665.921814 C 749.323425 656.974182 750.320374 647.861816 750.38623 638.716492 L 750.38623 638.716492 C 750.015503 635.3797 749.669434 632.018188 749.372864 628.656616 C 743.432495 562.62085 750.040222 492.531372 752.157654 419.014404 L 752.59436 361.819092 L 752.619019 360.303101 L 752.668457 352.2948 L 752.693176 348.356445 L 752.693176 348.265869 L 753.863159 198.884033 C 751.795105 198.587402 749.694214 198.397827 747.601501 198.356689 Z"/>
    <linearGradient id="linearGradient5" x1="757.60365" y1="1078.194721" x2="1258.874604" y2="1078.194721" gradientUnits="userSpaceOnUse">
        <stop offset="1e-05" stop-color="#35d0b0" stop-opacity="1"/>
        <stop offset="1" stop-color="#51b07a" stop-opacity="1"/>
    </linearGradient>
    <path id="p6" fill="url(#linearGradient5)" stroke="none" d="M 1132.026489 1015.067261 C 1132.026489 1015.067261 1131.977051 1015.042542 1131.960571 1015.042542 C 1126.506348 1012.603821 1121.118042 1010.346313 1115.729614 1008.27832 C 1114.394897 1007.751038 1113.060181 1007.240234 1111.750244 1006.762268 C 1109.146606 1005.79834 1106.567871 1004.87561 1104.013794 1003.977478 C 1102.629517 1003.491394 1101.253662 1003.030029 1099.869507 1002.593384 C 1097.702637 1001.860107 1095.543945 1001.168091 1093.401855 1000.525391 C 1091.630493 999.998047 1089.883789 999.462524 1088.128906 998.98468 C 1086.843628 998.613892 1085.525391 998.251404 1084.240112 997.905334 C 1079.057739 996.47998 1073.924805 995.23584 1068.79187 994.156616 C 1067.523071 993.876465 1066.237793 993.629272 1064.968994 993.37384 C 1063.700073 993.11853 1062.414917 992.871277 1061.145996 992.640564 C 1059.877319 992.409912 1058.616699 992.179199 1057.3479 991.973267 C 1053.549683 991.330566 1049.751465 990.753906 1045.978027 990.29248 C 1045.079956 990.177124 1044.181885 990.061768 1043.283936 989.97113 C 1040.433105 989.625122 1037.549438 989.328552 1034.69873 989.122559 C 1033.454712 989.007202 1032.210571 988.916626 1030.966431 988.825928 C 1024.754272 988.389282 1018.533813 988.18335 1012.371033 988.18335 C 1010.047546 988.18335 1007.740662 988.208008 1005.417236 988.273926 L 1005.392578 988.273926 C 1003.069092 988.339844 1000.762268 988.41394 998.438782 988.554077 C 996.461365 988.644653 994.47583 988.76001 992.498474 988.924866 C 992.061768 988.949463 991.600464 988.974243 991.163757 989.015503 C 989.482971 989.155518 987.802185 989.295532 986.14624 989.452026 C 984.87738 989.567383 983.641541 989.70752 982.372681 989.839355 C 981.293396 989.954712 980.23053 990.070007 979.175903 990.210083 C 978.442627 990.30072 977.701233 990.391357 976.967896 990.490234 C 976.877319 990.490234 976.803101 990.514893 976.712463 990.514893 C 974.759827 990.770386 972.798889 991.042236 970.862793 991.347046 C 968.885376 991.627197 966.89978 991.948486 964.922424 992.294556 C 964.576355 992.343994 964.205627 992.409912 963.843079 992.47583 C 961.610352 992.863037 959.377563 993.283203 957.144775 993.719971 C 954.52478 994.222534 951.896484 994.782837 949.276489 995.351196 C 947.340332 995.787964 945.412354 996.249268 943.476257 996.710693 C 941.194031 997.262756 938.920044 997.839478 936.637817 998.440918 C 934.355591 999.042297 932.056885 999.660278 929.733521 1000.327637 C 927.706726 1000.904297 925.679871 1001.497559 923.636658 1002.123657 C 921.494507 1002.766357 919.352295 1003.433777 917.218445 1004.125854 C 916.180298 1004.447144 915.16687 1004.793152 914.137024 1005.139221 C 911.533508 1005.987854 908.938171 1006.869385 906.334656 1007.808655 C 902.79187 1009.052734 899.249084 1010.338135 895.69812 1011.697449 C 894.042053 1012.340088 892.361267 1012.982788 890.680481 1013.650085 C 889.395203 1014.152771 888.076965 1014.688232 886.766968 1015.215576 C 886.717529 1015.215576 886.676331 1015.240234 886.626892 1015.281494 C 885.086243 1015.882935 883.545532 1016.525635 881.996582 1017.168213 C 880.521729 1017.769653 879.046997 1018.387573 877.580444 1019.030212 C 875.413574 1019.953003 873.230225 1020.892212 871.063354 1021.864502 C 869.728638 1022.441162 868.41864 1023.017883 867.100403 1023.635803 C 865.188904 1024.484375 863.252808 1025.366089 861.349548 1026.255859 C 859.322754 1027.178589 857.295898 1028.11792 855.269165 1029.090088 C 851.306152 1030.976807 847.326721 1032.912964 843.372009 1034.915039 C 842.037292 1035.557739 840.702576 1036.225098 839.392517 1036.917236 C 818.86084 1047.29834 798.007874 1058.989502 776.644104 1071.578857 C 774.477234 1072.864014 772.343262 1074.132813 770.176392 1075.426514 C 765.990967 1077.914551 761.797302 1080.419189 757.587219 1082.973389 C 763.684021 1086.450317 769.830383 1089.853027 776.092041 1093.099121 C 791.30957 1101.016846 806.683533 1108.613159 822.288269 1115.748291 C 825.35321 1117.148804 828.409851 1118.508301 831.491272 1119.867676 C 882.334351 1142.310791 936.011658 1159.340942 991.39447 1165.536743 C 1045.343628 1171.567627 1100.915894 1167.975464 1152.681641 1150.854736 C 1171.853882 1144.502441 1190.062256 1136.148071 1207.924438 1126.846191 C 1216.715454 1122.265381 1225.234619 1117.181763 1233.424194 1111.587402 C 1241.366577 1106.199219 1249.078369 1100.604858 1255.570679 1093.544067 C 1256.147461 1092.926147 1256.699463 1092.299927 1257.251465 1091.657227 C 1257.391602 1091.476074 1258.866333 1089.679932 1258.866333 1089.679932 L 1132.117065 1015.149658 C 1132.117065 1015.149658 1132.051147 1015.116699 1132.018188 1015.10022 Z"/>
    <linearGradient id="linearGradient6" x1="1224.204757" y1="948.841916" x2="755.675717" y2="564.960692" gradientUnits="userSpaceOnUse">
        <stop offset="1e-05" stop-color="#52af78" stop-opacity="1"/>
        <stop offset="0.77" stop-color="#adfffb" stop-opacity="1"/>
    </linearGradient>
    <path id="p7" fill="url(#linearGradient6)" stroke="none" d="M 1270.780029 1049.885498 C 1270.780029 1049.885498 1263.735596 799.84729 1263.735596 799.84729 C 1263.735596 788.617432 1247.504761 777.931396 1227.599243 765.020874 C 1145.93396 713.576355 1067.514771 674.539795 998.710754 636.632019 C 998.208069 636.351929 997.697266 636.080017 997.194702 635.799927 C 996.527344 635.453857 995.859985 635.06665 995.192627 634.695862 C 992.01239 632.949158 988.881531 631.194275 985.758911 629.447571 C 983.246033 628.046936 980.766113 626.638123 978.277893 625.237488 C 975.31189 623.556641 972.386963 621.875916 969.462158 620.19519 C 966.446655 618.464966 963.455872 616.743042 960.481567 614.996338 C 958.059265 613.587463 955.637024 612.178589 953.239441 610.744995 C 952.118958 610.077637 951.006653 609.418518 949.886169 608.75116 C 947.884094 607.556458 945.890259 606.361816 943.904602 605.158936 C 943.212585 604.73877 942.528748 604.318542 941.83667 603.898376 C 939.32373 602.365906 936.827332 600.841675 934.355591 599.292786 C 933.548157 598.806641 932.740723 598.328735 931.958008 597.817932 C 930.442078 596.870483 928.917847 595.906494 927.401855 594.942505 C 926.915771 594.645935 926.413147 594.341064 925.927063 593.994995 C 923.397705 592.404907 920.884766 590.79834 918.396606 589.158691 C 918.141235 588.993958 917.910461 588.837402 917.66333 588.672607 C 914.944458 586.901245 912.250305 585.105103 909.580811 583.33374 C 908.221375 582.41095 906.862 581.496399 905.527222 580.573669 C 901.547791 577.854797 897.634216 575.144165 893.761902 572.375793 C 892.27887 571.321228 890.820557 570.250183 889.362244 569.187317 C 888.151123 568.313965 886.964661 567.424133 885.77002 566.542603 C 885.654724 566.460205 885.539368 566.369568 885.424011 566.28717 C 883.817383 565.092529 882.210754 563.897888 880.628845 562.694946 C 880.604187 562.678528 880.579468 562.661987 880.554749 562.645508 C 880.513489 562.612549 880.46405 562.579651 880.422913 562.546631 C 851.69342 540.787415 826.795044 517.322632 806.667053 490.471619 C 806.617615 490.41394 806.576416 490.348083 806.527039 490.290344 C 805.447693 488.840271 804.376648 487.390198 803.322021 485.923706 L 803.322021 485.923706 C 803.322021 485.923706 803.322021 485.923706 803.322021 485.923706 C 803.272583 485.857727 803.223145 485.79187 803.173706 485.717712 C 803.074829 485.585876 802.984253 485.454041 802.885376 485.322266 C 802.885376 485.322266 802.885376 485.322266 802.885376 485.322266 C 801.913147 483.96283 800.957397 482.595093 800.009949 481.210876 C 800.009949 481.210876 800.009949 481.210876 800.009949 481.210876 C 799.869873 481.004944 799.721558 480.790771 799.581543 480.584839 C 799.507385 480.4776 799.441467 480.378845 799.36731 480.271606 C 799.36731 480.271606 799.36731 480.271606 799.36731 480.271606 C 799.36731 480.271606 799.36731 480.271606 799.36731 480.271606 L 799.36731 480.271606 C 799.36731 480.271606 799.36731 480.271606 799.36731 480.271606 C 798.485718 478.978149 797.620605 477.684692 796.755554 476.374573 C 796.755554 476.374573 796.755554 476.374573 796.755554 476.374573 C 796.549561 476.061523 796.343567 475.748413 796.137634 475.435425 C 796.071655 475.336426 796.013977 475.24585 795.94812 475.146973 C 795.94812 475.146973 795.94812 475.146973 795.94812 475.146973 C 795.148926 473.911133 794.349731 472.666992 793.567017 471.422974 C 793.542297 471.381836 793.517578 471.348755 793.492859 471.307617 C 793.352783 471.085205 793.212769 470.870972 793.080933 470.656738 C 792.932617 470.417725 792.792542 470.170532 792.644287 469.931763 C 792.018066 468.926514 791.400146 467.904785 790.790466 466.891479 C 791.185913 467.550659 791.581421 468.218018 791.985168 468.868896 C 791.474365 468.036743 790.971741 467.196411 790.469177 466.355957 C 790.254944 465.993408 790.032532 465.630981 789.818298 465.268433 C 789.694702 465.054199 789.571045 464.831665 789.43927 464.617432 C 788.911987 463.711182 788.384705 462.804932 787.865662 461.898682 C 788.153992 462.392944 788.425903 462.895508 788.714233 463.389893 C 788.285767 462.656738 787.865662 461.915161 787.453674 461.181885 C 787.190002 460.712158 786.926392 460.250854 786.66272 459.78125 C 786.555603 459.591675 786.456726 459.402222 786.349609 459.212769 C 785.871765 458.355835 785.4021 457.499023 784.932556 456.633911 C 785.146729 457.029297 785.352661 457.424805 785.566895 457.820313 C 785.220886 457.185913 784.874878 456.543335 784.528809 455.900635 C 784.223938 455.340332 783.927368 454.771851 783.622498 454.203369 C 783.540161 454.038574 783.457703 453.873901 783.367126 453.717285 C 782.93042 452.885132 782.493774 452.044678 782.065308 451.204346 C 782.230103 451.517456 782.378418 451.838745 782.543213 452.151855 C 782.263062 451.608154 781.982971 451.05603 781.70282 450.512329 C 781.365051 449.844971 781.035461 449.17749 780.697693 448.510254 C 780.631714 448.378418 780.565796 448.238403 780.499939 448.106567 C 780.088013 447.282593 779.684204 446.45874 779.280518 445.626587 C 779.404114 445.873657 779.51947 446.12915 779.634827 446.376343 C 779.412354 445.923096 779.198181 445.469971 778.975708 445.008667 C 778.604919 444.24231 778.250671 443.467896 777.888123 442.693359 C 777.838684 442.586304 777.789246 442.479248 777.739807 442.37207 C 777.36084 441.556396 776.973633 440.740723 776.602844 439.91687 C 776.693481 440.106323 776.775879 440.304077 776.858276 440.501953 C 776.693481 440.139282 776.528748 439.776855 776.363953 439.406006 C 775.968445 438.524536 775.581238 437.634644 775.18573 436.744873 C 775.152771 436.662476 775.119812 436.588379 775.078613 436.505981 C 774.724365 435.698486 774.370117 434.899292 774.024048 434.091919 C 774.081726 434.232056 774.139404 434.380249 774.197083 434.520386 C 774.081726 434.248413 773.96637 433.976563 773.851013 433.704712 C 773.414368 432.682983 773.00238 431.644897 772.573975 430.615112 C 772.549255 430.565552 772.532776 430.516235 772.508057 430.466675 C 772.195007 429.692261 771.873657 428.926025 771.560547 428.151489 C 771.593567 428.242188 771.634705 428.341064 771.667664 428.431763 C 771.593567 428.250488 771.519348 428.069092 771.45343 427.887939 C 770.959106 426.6521 770.489502 425.399658 770.011597 424.147461 C 770.011597 424.122681 769.995178 424.106201 769.986938 424.081421 C 769.731506 423.422363 769.476135 422.763306 769.228943 422.095825 C 769.245422 422.145264 769.261902 422.186401 769.278381 422.235962 C 769.245422 422.145264 769.212463 422.054688 769.179443 421.964111 C 768.437988 419.970215 767.721191 417.959961 767.020874 415.924805 C 763.313293 403.838257 760.141296 392.237549 757.447083 381.39502 C 755.609802 373.938721 753.994934 366.869629 752.59436 360.286743 L 752.56958 361.802612 L 752.132935 418.998047 C 750.015503 492.514893 743.407776 562.604309 749.348145 628.640198 C 749.644775 632.001648 749.990784 635.36322 750.361572 638.700012 C 758.781799 714.630981 785.154968 785.074707 855.870605 849.026062 C 863.796509 856.194031 872.480469 862.488586 881.699951 867.909912 C 881.699951 867.909912 881.699951 867.909912 881.699951 867.909912 L 881.699951 867.909912 C 882.144897 868.107605 882.589783 868.313599 883.042908 868.511353 C 942.232117 894.999817 998.512878 934.365967 1059.424072 972.405579 L 1119.676147 1007.825134 L 1119.676147 1007.825134 C 1119.676147 1007.825134 1125.797852 1011.417358 1125.797852 1011.417358 L 1126.555786 1011.862305 L 1131.919312 1015.026062 C 1131.919312 1015.026062 1131.968872 1015.050781 1131.985229 1015.050781 C 1132.018188 1015.067261 1132.051147 1015.08374 1132.084106 1015.10022 L 1258.833374 1089.630493 C 1260.143433 1087.974487 1261.346313 1086.244263 1262.425659 1084.4729 C 1262.425659 1084.44812 1262.450439 1084.44812 1262.450439 1084.42334 C 1267.212524 1075.747681 1269.980835 1066.124512 1270.623413 1056.245972 C 1270.672974 1055.578613 1270.689453 1054.936035 1270.714111 1054.268555 C 1270.73877 1053.510498 1270.76355 1052.727905 1270.76355 1051.94519 C 1270.76355 1051.253052 1270.76355 1050.561035 1270.73877 1049.877197 Z"/>
</g>
</svg>
